<mxfile host="app.diagrams.net" modified="2023-06-21T09:42:02.259Z" agent="Mozilla/5.0 (Windows NT 10.0; Win64; x64) AppleWebKit/537.36 (KHTML, like Gecko) Chrome/114.0.0.0 Safari/537.36 Edg/114.0.1823.37" etag="GE3zesQYFUsmWTLH8PGY" version="21.5.0" type="device">
  <diagram name="Seite-1" id="6duNZDfegXSJKI1y1PU7">
    <mxGraphModel dx="739" dy="470" grid="1" gridSize="10" guides="1" tooltips="1" connect="1" arrows="1" fold="1" page="1" pageScale="1" pageWidth="827" pageHeight="1169" math="0" shadow="0">
      <root>
        <mxCell id="0" />
        <mxCell id="1" parent="0" />
        <mxCell id="1BAPRSXIwwrrs-rfjln7-7" value="" style="shape=image;verticalLabelPosition=bottom;labelBackgroundColor=default;verticalAlign=top;aspect=fixed;imageAspect=0;image=data:image/png,iVBORw0KGgoAAAANSUhEUgAAAG4AAAB3CAMAAADVXIWaAAAAAXNSR0IArs4c6QAAAARnQU1BAACxjwv8YQUAAALxUExURf////7+/vDw8MDAwLKysrOzs7S0tK2traioqMXFxf39/fPz80ZGRjg4ODk5OTMzMy4uLkxMTMHBwfn5+ePj42hoaAAAAE9PT8PDw/j4+N7e3ldXVw4ODhoaGh0dHR4eHhYWFgUFBVVVVeDg4F5eXkhISIeHh5iYmJWVlZubm29vbxwcHFNTU8LCwvz8/H9/f+Tk5Pr6+jIyMgMDAwEBAU1NTby8vHx8fOfn5zAwMA8PDyoqKgwMDAQEBLm5ufv7+3p6eubm5r29vS8vLxcXF319fVhYWAYGBkVFRb6+vqurq2JiYhISEra2tvT09K+vr8fHx19fXxMTEwICAklJSfHx8RAQEKampvb29sbGxmBgYBUVFUpKSjU1NQ0NDZqamsvLy2FhYRQUFEdHR7CwsMzMzHV1ddDQ0ENDQ21tbTo6OsjIyNTU1GNjY0BAQKqqqgoKCnNzc9bW1mxsbD09PaSkpNzc3F1dXe3t7XFxcR8fH6Kiou7u7vf395GRkbW1tb+/v8nJyTw8PAcHBzs7OyYmJk5OTlJSUlFRUSkpKe/v7/X19Z2dnVRUVCAgIAkJCVlZWdLS0s7OzoCAgCEhIdXV1XBwcD8/P2pqas/Pz4aGhoSEhHd3dz4+PlxcXKOjoyIiIpSUlPLy8tra2igoKCwsLCcnJ3h4eOvr65mZmbi4uOXl5ezs7EtLS6WlpSsrK6mpqSMjIyQkJIyMjI2NjbGxsdHR0dPT04ODg1ZWVoWFhQgICEFBQRgYGOLi4qenp3Z2dujo6IGBgWZmZunp6d/f37u7u1BQUGlpadjY2NnZ2WRkZGdnZ+rq6jExMW5ublpaWtfX12VlZWtra4iIiHt7e3JycsTExJOTk4qKikRERCUlJREREQsLC4uLi93d3VtbW6ysrBkZGRsbG5+fn35+fpKSkjc3NzY2NoKCguHh4be3t3R0dKCgoC0tLYmJiZ6eno+Pj83NzcrKypaWltvb20JCQq6urnl5eZeXlwAAACmV98sAAAD7dFJOU/////////////////////////////////////////////////////////////////////////////////////////////////////////////////////////////////////////////////////////////////////////////////////////////////////////////////////////////////////////////////////////////////////////////////////////////////////////////////////////////////////////////8A458DyAAAAAlwSFlzAAAOwwAADsMBx2+oZAAABrlJREFUaEPtWk2SrCwQ9AbuPIB3Y+0FOIoLt30OIzwBK4MIr/JlVhX+9HNsaHveRHxvUkSglTKpAgrs6hffBu+6qZsQ3os6Z/XkwU9zfQfDPFlNWfBtcxNtibwF4mIcBoQ3olgqj+Lm8HgTfak8PzZN7yVVHFWVqymuydcf2QV7uBzT0ES2aLY8mkq/WKYYU93E0FJeZyUvQHbamO+A4jo3Cr+sShbq7m12Do3ZVQXybrKjOF85ac8ceTfZwTIfkKL8IPgV7rFzsz1t8rT0AvfYLX3T1DJIL5RXv+R3j53vIKQXeW4cMuTdYyePD6PzkLL0lEdNXuAeu6rqYCyxDdM0ucARbb6Wd5NdVT1mtOcwz3PbygQxXMp7YuezYDcL/KNFI+7QXr38kZ139AheoXMHgS60MydAgt3hUtyBnRvrHF9iPE4AcHceQdBDfQXsumO7fIUh2P0btJHZD8d8dlM71AP8neswfDl9U1x7aOknPOluEp+gexG+HIw9xeWzs0Z5Cbv5D7xuzLv97oBidvcg7PJ1h/fT0+cca9BHgUJ2frGeXISt/kLduR6Dn6G9DHqDpnQGIgrZZXbzJwzrLF7IDt2cQE9GuMT+963XF7JbOi4Xghy8fh1wpjvCprzSfsc+vEhPXvSK6DQw4kWS9nAxu7so7nf38BPsSnTn3sCmPIorYOf6thxzWAUUsnuzmz/s8eJRZcZi1I7tchp2x7Z2LWSHbt73EhDZ5TQwWn/t1udLLdN679rHJX0SGNnF76r/7Xf/Y3bbrtEnQHZnprI4J2GZsLoebTAiUCrnW1gmvPw8pTpWmtM4tnpwtTS0zDKkUkm/gt6fHpWgtWkSh3X/+5uYebB2pX3swVXnAX8UZEKe2x62pZ6DuFqHoNC3I8ck5rREUltB0dljRmHMerelHtmN4pckMHNaUHoScq3GuIqbmzhK6hsBI93Y/QVxGzsOJZL6RhzYQXffjI0dLPNXd/dwrjv1ASwDbFkmdj+Y05BKNGO53W0rTnXnHUfbdRtyCRheg21QAtt+mu+YH82n9Bjk050TxpDNO1pxrjs3xybWaUHYDTHq7O7DgNFv9z1ixE8xLR19j0xs5LlQx3iyEXauOx84pNrYzdmvqUXEwt3JJq7bUTaLWIF9jRFxmFJth/iAL/qd5658lFZT0dqA3PZlPetr420JrWLSzMA3QzOcivui302yy8pfuPVqe1p0mYiYmpleBjHwRh80o+wg+qwxT3UHkFOEw+JJQF4Yb4RXhj/exHVHDT9SXQ3Nii/DtLJD4pLdoTE12wzOPyhCdSOv33Ize7CKyC7WKOD3MDbIjHNj90J3h1FFmrOdKHX3Qk0nJelzG9m1KGC7yX5+DTvNYsfZfD+qwKxBg3vYqUc8mF7E6EwtbOnYoyA68e+GB6w4W3fHGcHhN4IaJOie0j/leo/flAhK6juUd+p8sNNk6+7QmOzeIq61p9i6EVWxXnOLRXePCff1nj/3cAmUHcUV6Y6mgWe2ZSgNhS/sHyxVW2VjBnb22UF1SGaz40sfxfFLHMrMKvjhCkwB6lCNRdgF0VrHaFrZlfY7gu+6GiF7RFNjlT/SfKyl8LZNqKC8OLILeIrL1N2fnhgfRm2CNIAkRLaxspPPn/w4Mcqgmt3vnhtTxSk76YYc8QnKk8eUnbSCCD6yO2nMC8s8iJNeOI49ZrR+pG2ShLEz5pCzsjPLpDcrm8aGA7sLcUxiAsNqjJAuQhvC20aMDWI8NI0DuyF0CekD0cbueVQBduI4Qu12ZkiPL6/sZOwWVRx0F+3rEJDsLVN3Mv/tLI10SIu6w8WLYiFX2KXG3MFkvNBdC7MQy1zgCww77vAu4oDWhPMgnOlE0KdYUC6+RaBXsSGLnX+E0EuzL/wyxmoSOuQfCzwgLXbwhDjh+y70KGbBAcnNOujumR0et9v21qWwArsBcUrYfWqQ6Ui4tMzP46C7n/Kivw0vdPdp/KjufoYdDdfO22GLiIPu4IHYIMxIR2O7WCYbu6dSxCtk7Bpz0F357wOGcvO0ZDzGQKsRD4VejyPua2xPaV1IaUjssHbDsIvhFKfcKikdadc4P+j9clptiiFtlGLBmQDO85iyet1+zMPufs6BrE2KdBVMeOoUkRerccxyq95KNc4Pa5LeeOukiFkTtgOt5sObw6qwc/wD3xE+2ph/m91Vbf+A7j7GjuL+Irv8fpf8NoiW8M6Rx24O/A/Demh478BUc8mOKw4O3jePFG2zzjnYmJ/FtSXwH/sz/2p3L1iE4/ofvd7ZP4Y+hOPfDX/xQVTVf590zcABrz7uAAAAAElFTkSuQmCC;" vertex="1" parent="1">
          <mxGeometry x="23.650000000000006" y="160.00000000000003" width="80" height="86.54" as="geometry" />
        </mxCell>
        <mxCell id="1BAPRSXIwwrrs-rfjln7-8" value="Test scripts" style="shape=image;verticalLabelPosition=bottom;labelBackgroundColor=default;verticalAlign=top;aspect=fixed;imageAspect=0;image=data:image/png,iVBORw0KGgoAAAANSUhEUgAAAIQAAAB/CAYAAAAuEWp9AAAAAXNSR0IArs4c6QAAAARnQU1BAACxjwv8YQUAAAAJcEhZcwAADsMAAA7DAcdvqGQAAEBASURBVHhe7Z0HeBZluv5117Nn6zlnm+e45b+uq65dd6XaAUWRJi0IoqBiQVoaIYSW0ELovXcI6dSQkAAhBRIIPfTeewuhI+T+P/d8ecLLOF/yJSYK7s513dfMNzPfZOZ9fu9T3pn5ch/+Pf17MqZ/A/Hv6Y6pVEDk5+db+lecfujXXSIgTBA4v3LlCvLy8nDhwgXk5uZ+Q1zvTk77l0bnz58vUufOnSu1zp49a4nLvM4bN25Y167TDxGOUgFx+fJl7N27F6tXr0ZmZiZWrFjhqJUrV7qV0/5URkZGodLT04tVamoq0tLSsHz58m+I21JSUrBs2bJCLV261JL9s2rJkiWFSk5OtuY8Bs9n7dq12LNnD86cOYPr168XtMoPCwyPgVAY6BV2796NefPmYcqUKZg1axZmzpxpicuq2bNnIzw83FG6zdyf0uOoZsyYUajp06ffoWnTphVq6tSpd4jnZWry5MmFmjRp0h2aOHFioSZMmHCHxo8fj7Fjx2LMmDEYPXq0tcxzJyA7d+60PAe9xr80EAcPHkR8fDxiYmIsKNhz6CXsysrK8khO36U89SiU6VUouxehBzFFz2GXbjM9DD8vXLjQgo5QjBs3rhAeQkkwDhw4YHlMhULb6V6dShQybt68iS1btlg9LTY2FocOHcKtW7cKtv4wpxMnTiApKcnyFvQ20dHRlseid+G6qKgorF+/3spnCALb416GokRAMG7y4tkY8+fPt5JDNgDXs5dQDCme6urVq4Uqybbykl6D6tq1a1ZiSk+moYl5B70Sr5+f6S0Y7uhljh8/jq+//roQintxKjUQDBdsLF48M3G6TiaanNvFMOMkehgnHT582K2OHDlS5jp69Kijjh07Zs2zs7OtnIfXzURzzZo1VkLNJJQ5BaEgHAkJCVYbEOJ71Ut8ayDYI5h1M/tmosW5KTaQk/bt2+eo/fv3O8oJNLucoHOSE4TuRCA2btxo5Uw0PI3Ozxs2bLBAoWeIi4srTGDZLrt27bI8zr80EDQmqw+7gamSGNjJgCong5ly8ihOcvIS7kQvsW3bNixYsMDKnQgEP2/duhXr1q2zvAUTV26nl2DbzJkzBzt27LDCzr0GRbkB4QQB5QQB5QSAysn4KieD2+VkaE/FvIA9PjEx0fIArLDU89FT0EsQClZGrEhYfTDZZPsQikuXLt1TUJQLEE4gUE4gUOUBAeVk4KJk5g8qVhm8LlYaGhJ4LfQc27dvtwarCAS9BZPPRYsWWQkooWDiyTCqnuJeAKNMgWDPsUPgTk5gUE5wUE5gqJxgcCcnEIoSPQTPl2MONDSvm3+Tg1IEhbmEQsE5PQa9CD0Fxy3oNdguZqJ5N4NRZkCw0dwBQVjoYrld3a2TuJ9dTscz5QSVk5wg80SEgufBQSqOP8ydO9daz8qK18L2IAQUKw/OV61aZXkH9RQEhOfA9rvbS9LvBAjG4E2bNhX2IDacKa5jD3MSv6M90J3UIHY57Utxm/0cnETDcl+GAhqVBmaZyfUcoON6jkswnFCLFy+25ixNWZKyMmFbUdxGb/MvAQR7Cw1vB4I9i3FWS7PIyEhrpE/npth4xYmjgpR+Rz+rIiIirGNTXDZFQ+qy3lMx76PoZ3f3Upg/sOxkpcFwwHUEhNL7JNyHn/VeC/fhenoJfmbYOX36tDXie7dCUaZA0O1zTvfIOWMs7wnQfdJIHO5m0kWxfDPFLL4o2fdnj6V4LMZpu1gGOonnYorXYYohQcXyUWVfz2sh5KYIKaHQG2JsJwLBG2XMJwgZPQ+Huekp7sapVECwp7BhTCAIAYFQGNQ7sGcTBvYOhg66TadsnuuZuTvJ3XdU9kSwODklm06yJ68qp315XHpI3i5n+9ArqHchGPxM0VMx3NytYxTlBgSXc3JyCt0xG0EfMGFDsIeURPzO3Sg9P068PnYCegJtI3oxdgqGDIWC6wmPjmZSd8tUJkCwBHMCgvsSCPYK1uOMnTwG9z916pQVTz0Rk1Z3Iox3g9gWvC4amuGDIYLhjAmojmSyLRhSCAXDINvpboOiXIDQZRMI9hzuy5E7NgRH8RhCmGewEU3xu07SUtQuHs+d9HyKkr3ULE5OYUTF62EOQ6MzJyEQHNFk7sDqg23BIW5uZy7E6yIU6gW/76nEQHAgxh0QNA4bTJdZajoBoQ3nZGQno1KmAU3ZjWXKbiy7nHIBJ9lzEHdiPsNzYh7BRJKJJ8vczZs3W52DyxzPYPJJKLgP4WEnuFsGrkoNBDNtEwgagAblnI3CZXdAsJF/qEBwzuclmEgyd2B78TqZT+n4CJ8Ao/dQT8Fleks+f/GDB4IJpQLBpIvZNRtZQ0NpQDCNbpeT4VV2QzvJbuSSSKsiDlgxV+CYB8MFt9HgvN+hA2bch96BULA9CQU7yff9LEW5AsF9iwKiKBjsEKhM45tyAkBlN7qT7Mb1RGbpSxEGzjmyyqqC103PwOSX58j20FFXznUEVG+bc1yE7cF2/r6gKBcgdJn7miHDCYjvAwQn47qT3ejFiVBoqNRymwNRvGuquQQ9BYHgnLfNTShYmfDc2dacvmsoSgwEL4LJUHFA0Lj2HMIEQsNFaWGwG9+UHQBTTka3y8nQnopA8OEZHSInBMyb2EZsA3YSJyjoHTiqyc7G+yA8DtvrngCCiRBrbTsQNCoNoss6MGUHgo3uBARFAMxlu0wo7LKDQTlB4SQ7FEXJNL5d9AQEgqOzBIKdgmUlH0hmHsGcgiIUBEKhYCLKNtXhbn7mGAzHbr7LqcyAYOPTiJzTOFz2FAgamnOGEQ5g8RE1u/h9J3E8w514LHeicTwREz2KyzxnXp8TCCoOszNM6A02egheM18F5DEICKWeQqGgOIDF79FLMAdhrqH3Pb4rT1GuQPDCnZJKBUJhUCDYkHzRhreQzdfp9DU7u7hdX8kzlyneOymp9LvmyzqUrqdrJxxOIKgIBK+b10zj6n0LGpZAEBDKhIJtSiAIAO8M8/4Hb5ARKHaq73I0s1RA8GSLAkKXedFFeQg7EGwoNghH8PQZA32+wFMpSJ5Kv+cEnEr34fgBvYsTCBTDBUXj8n4GB6Do3UwgCAivk4ZWKBQIHafgNdNDjBo1ysrV6DnZdt/FVGogOApnB4KGNYHgRbNh6CVMIBh/zXChIiTcjw3GhjPFdYzNdnGbPbyouJ3Hc5Lu4xRqVNxP5xQNw2tTAOgNTBEGzjlMzWciOLbAa+LYAttIgdDrIRCaT7Bd6SEofp9jFMwneE+ED9fw2HoTrTynMgeCCZou86JLAoSZINqloJmyJ4YqTf6cpAmhO5k93i4aW+dOotF4DCaEHJiip+N5KhAESgEjjAoGoVAgdOCK3ogjnWxrlqT8fPHixXLPJ8oVCE0qCQQbwA6EHQQ2GHs1G8lJ2rso00vYpb3fSdrb3YkhwfQS/Mz1XGb+wOtzgoEiELx2hiICwfsWrBTYRrxuDlDxM+/0njx50voO9+dxed4MHxo6OGdew7bjwzbMJ3geHN4uTyjKDAg2lB0IzSGKAkJh4DIbhb2LDaqJnCmN6WwoTfjMZJAyk0FNFpmXmDL3cScaU6Xr6MoJLQ3vTjQub3UzB6BhmTuwdOS105gUPQbFtuB2gsHjEnq2r3oJznmbnHAxdPC4BIltXl5TiYFgvPMUiKI8hIYLEwjuo0CYSZ0pOwDuILDDYO7jiZwAIhDMCZxA0B5P98/ezByC+/Na6RG4D8MNPzN0sZ20zeiF2Hk4lG0CyDKU18DklL9PweqOwDB0lFfVUWogGN/cAUHRyHTtmkMUBwTFdUy8uK/ptk2x8Uxxfyexp7oTe2NxouFVuo7ny3O3w0ARCF43AaJ3oDj6qHCzSmFv12dA9flOPkbAzsUSldUY24udiCJYrDK4jR6CoYP78O+wLctjKlMgaFSl3wSCF0cjc9+igHASvY2T+DecZE8e9bO5zkwUnaQ5gcq+3gkGegFeE0tGegcdhmavpjHVoOzpFEvKkSNHWhoxYoSl4cOHY9iwYZaGDh2KIUOGWOt0Gz9zf3oeDnSVh5coMRBMdnhhxQFBY2vZ6SkQ7L10ubxgLcEo/k0n0X06idB6KiZynorXQBidgFAPwWPSK/CGFT0BZXoCun/2fLaJPq6v8LBdFRITFoVh0KBBFkj0GPxb5TGsXSogSLgJBOd2ILhMIDjq5g4IBYGNTDiYVNLllnRgivvQCJ7I/J49P7Hvq+u5Lz+z9CO0CoAphYPXxuvRvIDtRcD5XeYFPBavj5BwcI9wsNMQDPUoFMcguI5tp++c8KaiehN6X312oiynMgOCINiBYIMQCF6wOyA0BFCM/Tw+G48JlorPJboTG9suZufFyfRAxUmPScB5zk5AqPThYV4Py0SFgtfBYXkmwQSYuQTzCA5eMU+g6EUICoEhgOwc/B6PQcB4HvQm9BQ8HyaXZT2VCxC6zDLKCQjGYw0XJhAU1zORIzAqc8zClOllTNmPaYqwupOeu8q+jSCbIUIBMKXreX4EgiFQgSDo+qNorKZ4b4RQcztDEtuL32HH0Dbg3+b4BctVzuktCAS/xzuoZT2VGgjGQuYOZQ2EO5nGUQM5iUazS5PC4mQmknaZ+YIdAlMmEOzVdO30LOzlbA+2A6slGpz78Jx5fD2uvlrAtuUyxQSSg1H0CPQkzCcIxF3hIZi0MbFxAoKGowG4bAeC+QG/7wQEDcw5Szs2HqEzZSaBmjjaEz5uY280xfU0hKcyv8vzUHEb5zQkz9UOgSkFgtejJat6MrYNodJ3TWh4NTrl7lgcvNJ2ZmL6gwVCYaC4P3sP3SnrdTOppMxkUJM8T2Umjp7IPvCl6+niaWS74SgaWYelKV4j24K9n5/V6Lqfua873VNAMJaRcHdAcJlAsLQiFMUBwWW6WCZxjLNsfCdpoumJ2GieyExIixI9B8E1jVqW+sEDwfjpKRAKBdebSaQmljQEpesp7q/iNvNY5jF5Pk7idp6vk7id56niOvZ2Gs5082UlJyAUinseCIrLCgRlB4IG5D524xEG+xAz16nosp2k4JgywbKL2xUyd+L5UPodLjvtVxZimxEAJ4/BauIHAYTmEE4ego3AfUwgWG6xvtayjGKp5omcwotdTmHFU2l4KWvxvHjNLDfVA91TQDDGuwOCRjWBYGZeFBAKgn6XjcL8gUmkuwTPSebdzaKkdxE9kd7pLG/xvNgBWMn8oIAgBBp3uUwDu8sheOEKBL+jQND18zv2EtIsDU2ZpaGKXsmdeGxPxfP9LsS/xeqK4Y35gplX3DNA8KYLb7DYgaBRTSB4wXormBfO7/MJYgKh4UKBcCceS8Vj28VjmdIBJLs0Y3eSNrxdZm91J9OApZF5DLanfRtlB0JHKjlgVdZTuQJBCEoCBL0Ge4omkyp7AqkJpil7QqkyE0kV/45dPB9PxHP2REeO2OSwD6XHZZvYASsKCOY1dy0QLIucgKCbLgkQHIdggsUYbj7CxhhrF3ON4qSJaVFySlA9VWamK5ldJcbJXr0aa9dQ2ViTvdpSdsHclLWd4xrSw7OyXP+eisdg+9CTsU3VU9wTQNBgvP1aFBBUSYHgMoeG2dAcidSk0i6npNIuezJZnMxk0hOlSTK4QoBbRSDEoEwOE5OSETc/HjOi5mL89GiMnhqBkZNdGjUlAmOnRWHa7FhEz12A+IQkpMhxVq7IkOvlINwKK/9hu5hAKBR2IAYPHnxvAkEIeLuWj5E7AaEw8Luc053rDSF78qViJcIkzEnc5on0cTxT/LvFadcu/pb3XuwXbd++A5nZ6zAnMQWjZ8Sh6+DJaN11KLw69sW7n/dEzU+74c1PbqtW6x5o2K43WnUehE79x2PIpChEzU9G2spsbJNjnTh+TAx/vhAIEwo7EAMHDrS8yj0JBGFQIPgcoB0Ifs+UeguFxZS5n/4du+h2eXwnMYE0E02VJpH2RNNaLth2/uwZnBMdOnoMWRu2Yca8FHQfEY4PuwxDzc97oVKzLniukT+ebuCHpxrKvFEAnmnc2RKXue4p2fZMQz9UfL8zqn3SA15+AseQ6Zg6J1mOuRXHTp5C3gXXv550AoLzuwoI3pNXIPgEjx0IGk0NYweC4YNA8CkfGkGNbhqZyR1HKD3p9Z70cH3g1pSOghYnM6E9cMD1q3qr1m/GlDlL4B02Be9+FYoKAsHTjTrhaTH6c826oULL3qj6WRhebzsUb3qPQk2fMaLReEuWq7Ubipc/H4CKrfrg+Wbd8VSjQDwpkPyjaQDe/qI32odOxIz5y7F9z37knnf939B7GghCQKOyJ3KZxrYDQQ/jDggu04gspxjXGZfNpLKoBJPKsCWUpnQfe0Jpytz/duKYaSV/6ekrMDN2IXz7T8Bbnwfjqff88EhdXzzZOAgVPw5FDe8xqNd1Gpr2jsQH/WPx4cB5aDloAVoOXoBWopYD5+OjAXPRIjQG7/eKQMNu01DLbwxe+WwAnnu/Kx6t64Mn63ujVps+GDA5Dpu277ZAOF8ABQ1/1wLBu3586JNA8GRNIGhUJyD4oklxHoLL7MFMlkwgTKM7yTSkk5yMf9vgzmJjU4QzPT0D42bEoLlffzz9Xkf89d0OeL55T7zZcRSainE/FsN/MmwRPh6WKPNEmSfgo6GL0GLwQjQfsMDSBwMX4MNBCwWQeHws2z4ZIhoskITFwqvnDNTsOALPN+2Kv9Rqh4rNAhE6MRbbdu2TEHX7vwr/IIBgEkgYTCA0hzCB4P4U8wq6ZtPd2105t5tjFDoOwfVOMsckdF/7uIRuv3Nc4gCOHT2CZSuy0bbXWDzTwFd6si9eazMY74sn6DotDROTNmPGsm3oH5ONz0YkoWHfuajfKxb1QmJRp2cUaveIRB2qZyTq9oxG/ZAoNOwjEPSbY3mRT4fG4/Ph8fh08Fw07j4NL33SB395uy2qNA/CrPkpOHTkqLTteWtE8l8SCK53kiZ/lJn4qTQppLR2N8XzLEoMfRR7oypPMv4TJ05ifNRi1Ggdgsfr++GNr4biQ3H9wRGZSF4vAJ28gJO5l5G5/Sj6RWahQe85qNk1Cu90j0KtHqpI1OquisC7otqiegJJo17R+CAsDp8NW4g2I+LxQe9wVG4Zgj++2QZfBI/D6o3brPO4fPkuB4IvkvANIjamCYQaVYEgBPaQYQKh4UK/y57JRNJ89M1+r0LF49nFEGWXWbK6k5nEqvbt3oWUjNVo03M0nmvsL8lgb7zfNwrtxqVg2rItOHgqFzcK3ou4cPkaFmXvQevhiXi7m3iE4GiboiyPQU9Bj0Eg6vSYjTrdw1G/ZwSa9YsVKOLx1fCFqBswDg/Xao/XWvXAnOQVOHvmrLTZpTuAGDBgwN0PhIKgvVqBKMpDmDBQDBWM8RyYchpwUpmDSk5yGkyyS+822rV8uWuetTID0yLnoUG73lIq+qNGhxFoLblC23HLMSNlC46fc71fyenGjZtIyzmItmOW4N0eEhokbNTvFWOI4cKQAFI/OFJgkFAiYDQIiZQkdB7ajU4QLzELT0qZ+qyEqHFRiTh67ITkXVesl3LuOSBoYDsQHJiiTCDo+u3hgmLM5/MWTOyYXFK8cLt0m11MAu3i+TqJ1VJRytm0ARFzEwWIPni2cQDe8RuLNqOS8cXopQiJlPPYfgS54hlufH0L+0/kYtqSzVJRLEKdkBg06BMn4SO2QPKZEjAsWcvRoihL7wkUDQWIjwbMQYcxCWgVGonnmnbB43U6YMi0eThw6CiuSSKuQPD1h7sSCL7AWxwQdNklAYLrGDYIhlMCaCZ/5noVk1JKE0OKnkil2/l3VGboovS8zknusXTFOjTrNFhCRqBVJrYbu8QC4pPhizFoTjYS1uxF6uZDmL50C3wnLEPjvnMsCBrJvJEkjy7FoZFAYEk+N6ZkuXHvaEuNBIomoo8HzYX3WKlUwqLwwvtBeLROewycOgf7Dh4pBCI39wcIhJad2vAmEJQaxknmfvp3VJp0mioq+TTllIBelsw+dXUOPug8FM816YxavmPQYfxStJ+QIiXlInw6YjE6T0lF0Ix0tBVQPpCy8v0B860Ss7ml+S7JOuqDsHlo1n8umvaLg1dfKhZNRV59YtC0T7RUGvPgO24xWg+IESC6FgAxF/sPH8H1a3c5EHwz2RMgzJDBRNAdENyfc/ZyJnlMKs0HZOzvV3CdJpf8zL+j0vWUJpa6TZNIXb9tmyuh3LHj9s8P7Nzp0qH9e7FgSTqa+oThea9A1O40Fr6TUhAwfQXaj1uGLyR8fD4yGa0FjM9HJaHN6GQBY6kknckujU1yabRLbUYuljJzIZqHzcX7UnY2C42z9L4klEwqP5dt/hOW4LNBsfhHARCDLCCOCRDXCoDIvbuBYI+yA0FjlwYILjOpZP7gLql0SiAp3e6UPJr7uZLG2wllenoaVmRw8EvWy2fegaRSRZmSVE6OmIt6X4UIEJ1R238cfCQsdJ6egU7iGSxNXm5Typ0SgDpNWoYAa3kZ2o1KRIsB89BcPEXz/nPEa8xBc4GiRf84fDk8HgGTBIiB4iGamkAc/QYQYWFhdx8QfCu5OCDMkFEcEJwzZ2DvZ4LIv6NySvpUfD5DZX/jS8VEVWU9niceJ0f+TtrKTITHLcTQibPRZ8RUBA+bjJ4izvm5fchIvPZREJ5u6IdXWoeiQdAkePWcjiY9plnysjTV0JTb6j4FjYImolnINLQdPt+CouPYZGtIu4V4CY5nUC0EipaSUH41chH8JyajRd8IPNukCx6t3dEC4sDdDgQzdz7TVxwQXKZ75mvtlBMQhMAEguJ6hcVJup+K3zXFY5vS/IGDTJyfOXMKx08cR/qqDeg9ejYae4fhVTF6paadUMHLv1AVvTrhhUa+eLx2O/z1nbbSYzvgyff88FSDTq47l3eI63iX03Wnk3q6kT8eq9MRFT7ohubB09F58jJJPCUhHbLQurfRSsrMj0Wctxo4D62HLJCwsQD1u03DU406CxBSZcxMxJGT/CVbV/vnXbqG6NiF6Nd/ODIlv7l42fUD6WU5lSsQ9BDFAWEak5+Z9ZtVglYGlFYLdilE7kBSeE7y7x47ipSs9fDuPwVVPgiybkmzzKvQoicqfRRsqCcqi6rIMsXlSh/2cFRFqgXV3VAP/KNpIF5r3Ret+oYjaEqKeIBl+GyYJKSSL3AgqvWwhZaXaCxVBktP5hJ1AifjKalqCFP/sROwfXMSzh1Jw/lj6Ti6Nxlx4aEYMbADMpZOk89LcOHUely/dAK3yuh3IsoVCOYQJhB6t5M9VQ1lAsGQwQRSxyGKG0ugnMKISkNJtmjdOgkd69chfslyeIdOwAtNXM8rvNVuKJqHzMKnA+LQelCcNXcpBp8OjJWYXiD5/JmUhHa1HhCJ1v0LxM9hnEdY80/6hePLgdEImLAYIbPSLCi+kjyCQ9UfD54vSWUs3u0Wjjf8p6Fm4EwpSaNRJ2gqnpaQ8VhdH3QNaYmUmCbYEN8Ya+c1RFZMPcwbXRmzBzyDlJnVsGFhfexc3goH1/XC6X3zcTnvKIjFt2Gj1EDwBV5PgeAvo7Aa4PfdAcFl3sxibOQLukUlkSozebRLE0eKd01XZKRjUdISdB8yCRUkPPDeRB2/MVL7L0bw7CwER65CzwjRbCqrQJnoGa5aiWCZh8xeiZCIlejFefgKS8GzMkScq/iZSkfPmWmWuk1Phff4JOt2uFffGNTrEYHqATNQueNEVGo3ATUCJDcpBCIIj9f1g6/fS5g77LdIHfdrLJ/wZ6ROeBgp4/8kegiZ0/4fVs+k/oDV4X/BhgXVcXDDAFy5sB/5km+UlokyAYIjaAqCHQjCoEAU5yEYIhhmmPjRU9jLT3oZSstPHp/S9aZ0G8UHarbIPHJ+Epp498dfa7VD9TYD4TMuCb1j1qJX1Bp0FRCCZq5C11lZhjItdRMYqK4zMxE0YyUCpfQMmJYBf6k0/KS68JmYIhUItQzeqvFL0WHsEnwlJecXwxMtEBr3jcU73Wbj9U7TUdV7Miq0n4h/th2Piu0n4M3OM+AlQNS1gOgqQPjDx7siYgf8GCun/BpbFlXDzpQG2JXaCLvTGmJveiPsSa2LLQlVkR3+J6RP+gWyIx7H/vX9cfXiEeRbP25aYLgSTKUCgg95egIEk0rCwN9GMoHgYBBhsAPhTjymijCZcjfAROkgU17ueew9eBijwuPxkuQNfMLpY3HxvaOzESwwdJq2Ah0npaHDxFR0tJRmffaeJMsTlqP9+BS0GbMUnw5PwoeDE/B+/wVo1Hce3us9F3VC4vBucCxq9YjBOz2iRJF4p3sk3u4WgbeCZqNG4Cy8ETATr/jPQBXvaajYcTJebD9JNNEC4kXxDpUcgfATIKoiduAD2BD7OM7u6oYrpyfiyqkJovGWLp8cj9xDQ3F0Q1tsmPsPpI59AKvCH8WJ3dG4cfW8xI4Cw5Vg+lZA0AhFAcHe7uQh7EDod/iZiWFxCWVRSaQeV8VE8vTpU1ixNgftQyfhifo+qCbeIVDieb+49dLzV8Fncjo6TEovgMAlgvHV2GVoNSwJXv3jUafXXLzZNQavB0bi5U7hqOo3E5V9RT6zUNFnJip4T0eFjtNEU13qMEU0VQw/Bf9sN0lEEMQrdHCpYodJqCR6se2EAg8x/Q4gHiMQPgKEeIiNc57CxYMDgUtxUmrMAHInAedFudORnxeFr89H4NSObsiO+jsyxt2HTQmNkHd6k1iMP1vosp2nU6mB4Ot5xQFBd10SIPjAC8cN+CSU/eklu8ybWqZ4fqb4HkRW1iqMmhaDtz8PkdLR3yoD+8WsQZ/YdQickQlfAcJ3Sgb8pmZYy1+NTcEHgxNRr/d8VO8Wi5c6R6Ky/2xU9A0X47sAuK0ZqOhNTReJB1AJFBTBqFgogqByA0QXAaKx5BD1/CWHKAAi7inkHRhoGR+nBIwT3YDjXYFjPZB/eghwIRI3zkXg8OrPkTHxl5Jr/BeO7QzH19cvldhLlAoIvihSFBCUAsFwUVzI0O/yiSgau6jb307JpcopuczMyEB8QjJ8+47BPxp3khIxGB1HxWPwgg1W7tB5eqY1HN1J1G58KloMXozavebhtaAYVA2IQkX/CFTwExAIg6VZqEQJDCpHKAqAUFXqOMUlgcGl20BU7jARbwfNQlNJNmt3Fi/WMAjPNPBB984VMG/wfeIhnhYghiL/QozA0E9A8Bf5AUcpAePMKNkWh8tHx2FN1BNIG3sfdq3wxqXzu75fIGhgEwiGDMLA310sDgiK4YCVBr+n9x0o+8Mrnj59zWPt27sHictX4JNuw62BpZodhloVwJD5mxASlY0gSR79psr2UUtRr99CvN41FlU6RaKi32xU8I1AJZm7FC4giGReWYCgKlneYoaEC0pChoBQKHoHSwwdVEG4kPzBJUkoJX948avxeMV3MupK1dG0XyxqeI/GI/WCULnplwjr+hQShz+AzfFVcfnIBOTnxgoQ/QWGQFFnl44GiLcQSHIjcDN3rpShDbBy0k+xds6rOHN4WYHlPJ++VyAIgwmESmHRfTxNJDWJVPGp5fPnziJ++So08RuEJxr4o1mPqRg0dy2GLshBcMQayRUy0Ey8Qs3geajaOcblEQiCzCv5ucRwUZlQEAgBoYKAUMFbPIMFgksu76AewvQOEiooK0wUqACICu0m4iXvSXgnaKaUnDFoGByOKh/3xZ9qdUH9T5tgXMgfsXzcr6SyaIjrZyRc5EYLEKECQHeRhI1jMj8WJAoBzk5F/qVEnNzcRUrS3yJt0u9xdPtMa8CqJE6iREDQoIzTBIKv+RcHhIYMAsGy0QkI3Z/L/A4Hp9iz9SFafbCWMh+s1XX6jATXUfpsBJePHHK9PDwxahHe+iwEz3kF4ctBsRiZsBlhc9aj/cR0NAhNEK8wB5XEK1Twd6lSgSpbcgFBz1DBR0KGgEDvUNV/Fl4LmI1qXSJRPSgKNYIiRREiqSyoLqpwl6TaKFTnmaguVUWNwJmoI56Bt8Cb9JbvdhyJvzfsYo1SdvKrgsjQn2DVrEdwbFNnfJ27EPnnZgoIfUTBIoHAUk8BohdweixuXUzA5cPjpQx9GEtG3od92f1w49qFEiWWpQKCD3mWBxA0NkcYOZBU1OP0mnCqdL2ZdPJztnizlNQ0dBs8CVWaBaLSRyHwH7sIIwQIv2krUbdfPKoGxuBFvyjJE6IEiihUtiQgUATD8hKSUPq5coeXBJDqQdFSasahfu95aNhnHhr1E/Wda5Wi1sMxfeMM8WEZmRc+MFPwsEyvaGtkkp6hcfBsvOk9Bs+83xMPv+uLOi0biXd4CInDHsDWxW8j7/AkSSgXSa4wUTyEAGGpb4EKPp8aKXlEPG6enSsl6ItYOuo+7Ehtg0u5e8vfQ5QECMLAX4L3FAiGJCaI+mLO7VvV7t/D0G0Khmr1qkwkLU2Bb7+xeLFpZ7z6WT8ETk5GSMw6NBqQiCoSIghDRf9ogSG6AIbbQGjIqOg7WzxCBN7oEoU6wXPROHQBvMIWwktAaMhnJnvMRt1us1BHVK/bzG+qu6jrDJe6TS9UXVGtgIl49cvBeMqrO/5W2wcve32EvkFPYt6An2B1+N9xLKcbbpxPkHAxBzg5QowvOYSlMPmskjByapjkGPMkbKRg25I6yBj/Y2xObIDzx7PuHiCYQ5QECCaVdPHmexgaJlQaKlQaKigNH6rjxw5j8/YdCBklsfmDLnj5037WvYTPx6WjWo95Eh6iLVkwBNwGQkOGC4YIvCRw1Owei4Z9F+D9sHg0Fk9QO2gG3mg3EpU/CcM/P+yN55sHWy/wvCDzOxViyL6tJ55q0hV/q9tZYPDGG82aoUfnZxA34OdSOj6IfZltcOVkrPT8xZIjTBPDDzYk5WahBgkQAosklbiShb0rPkXWlF9hXVwVnNw3v8B6nk2lBoKv+JclEJQ9YaSKShr1fQr7OxV8WZa6cuUyDh45gbBJcajSIgjPtwhBE3HtXkOW4o1ucwWEGAsGd0BUFCBeDojAO8Fz0KR/PJqKV6jTfTZeaTMUzzTtgb/V64KH6wTg0bqd8Pf3AiRpdaP6VCc88Z5N9b3xTP2v8GrTFmj1ZXUM6f4w5g78KZaP/z32ZLTCxeMRuJmXIrlDnBh8jBh+mEgM/w0Nl+2jgfPiRa6uwpH1flg9/bfIjngax3fOKrCeZ1OpgOADGp4AwXsKCgTvSxQHBD0Ey0WGGsJklp9FlZ78jr38pPbv34d1G3PQY7hUAZJDPN2sJ+r1jEKTwUtQo8d8gYBAxLhgsAFBGKoGROLtnnFoErZIgFiAtwOmijfoi0fqB1pPRb/W7CO0+KIOOvjWgH+nGgjo/BY6BdQwVL1Q/p2qid4QvS56zZoH+ldGsHiEod3+ghm9f4X4IT9G5szHsG9Ve1w6Ee2CIXcB8s9McRmcUHxDXC86zdFLAUIqjeMb2iJ7xm+QFf4Ejm2bUWA9z6YSA8EYz2f6CAR7dGmBIAx2IBgimCTyV+g4CKU/EqIDT/ZBKhUHoHQfUysz0pGYtASd+o9DxaYBeLJpd9TqGg4vAeKt4PlWDlGRUBhAqHdgQvmmhIlG/V0w1AyYJCGhN/5a2x8VG3+M1m1ex4CgxzCl9+8Q0e9XiOr/C0SFyTxU5naF/VK2/1zmotCfFejniO7/H+IR7sfikT/HyumPYmtiXRzd3BdXTi0UGNIEhgTkn5UeflqSyVPjRTLnsqUJBXMJJacJzCjxFBI+zk/GqQ2fWkBkznwER7YKKCWYPAaCL6VwHIIegkDwjayyBoJ5AIeumSjaKwmzgrCL52SK0FLr1mZjZeZKhI6ZiVc/6orHGwaiZufpaDooGe/0WigVRqwklK6wYQfitcBo1OuzQMLEIrzbZYZ4hn54tI43XvFqDn/vipjW57+ROOKnWDH1j1gT+RzWS7zeMKcqNsTZxHWWuL1A3De2CjbK+i0Jb2F32oc4uikEuYfCcf38cuRfzBAYEsUzREplUWBwS1wWnZkuChdFCAiy/mg/4EAb4FA7yTVG4NTGT7CGQMz6mwAxucCCnk0l8hB8p4LGYsgoCgiudwKCQLkDgt/h93lTyylB1PEFld4As98EM2+E8VdZjh45jIiFKajbLhSP1fdHdZ8J8BqYjHf7LMLLXeLuAIJlJ2HgSGXNnnPgNSAB7wVHo0rrIXhcvlu18QfoJDBED/wfrJjyILYsqo6D2R1wcvsgnN4zBmd2j3XWHgfJ+rN7x+OCQHDlVDxuXEjHrcurpUpwwYBzsWLc2WJ0imBEybpoWUcJCATjhOQUhwKBve8DO98UKD6RbcNxYn0rAeLXEjIew5FtUwus59lUJBD6T75UfKiTJWD//v0dgVADm0AQBv7TNj7jUBQQ+j1T3E9lJpeeJph5cl4X83KxdOV6fNhlOB6r54uX2gxHYyk564cm4tWgOY5AvNw5GnXpHQbE403fiVIJ9MTz732KL756BZFhEpunPoQ90qvPHZyOa2LIm5fXuHTJruzbukKtFa0XbbB0S5R/eSPyr6wDLmcBkjPg/CIxvOQC52IKAJD5WYGB3oCe4YSEiuMDgcMBAsKHAsLbwPYqoleBg+IlzgzH4dVeklT+ykoqj+0oo6RSIeA/7qDRKTYyn2Zy5yHUwJyXBAgeh8uaVDKZdEoenRJHSu9d2MWc5KAklkvSs/BFj1GS1fvixY/7uwaTBiahmlFpVBYRiIoCRLWgGDSSUNGwt1Qnnw2VCsIPtVvUx8ief0bquJ9j55IGyDsWIz16vWT1G4CLNGaqaLmDuD6tQOmS9Mn8oqy/sETKxAQBYKHL6Gck+Tsl8f6UGPzkWJEkiiclaTwhFcSx/sCRHmJwH2BfS2B3fWBHdWDbS8BWwlBJwKiB/MN+yD89FLtT3sTKyT/B+jkv49Q+OX4JpiKBIAx8/FsNSePxH5PbgdBH6NTAnJcUCM45ZM0BJSaV5v+50Efq7DITTkr3V3Efvncxf2EiOoaMwPON/fBMsx7WG9heg5PxVsgC8QySWFowiPxdVUaN7hIuBiZaL+I+1yIMLzT40vIO0QN/g7URf8PxbQOk17NXb3QZOld69fkFDpL1ltFF7PWnpYcfH+q693DQF9gvPXpfa+nprYA9zURNRV5i8EaiBsCu98TQdcT49ALVBIBXRFVFlQskMFDbZXlXbeQLNLeOhyJn/gvWHc+tyV7IPbmubAamTO9w6dIlK1zwgRT+8zCGDL7RXdZAMDfgd5gYmg/QcrnwgVn5rO9b8LP5zgWl+3GZ+2zO2YTsNdnWr7693qo7HpX6/y3/KZJYJqF233jJI5hY3gaiSkAU3g4WIAYloFbgVDzp1QeVG3+KTj7/QPzw32JrfHWcPxyLW1e3S/KXLT196W2jW1osn9n76f7jpZdL0ndEANj/pRi5cYGLf0MMSeNKD7cMTBUY9xsSY28tUCEIVMH2rRVF8v097yP/WCiu7A1EdvgfkTz8PuzO7Iyrl0+ULRA0Ig3OgR4mcPx/lCUBgjDw/1F6AgTFxFKl+5j76v4qHsuUPc84f/6sdddzaeZ6tOw6UspGb1T9bAgahy5E47DFqNFjngXCP30j8aKv5BB+UagZPBdNBy5CzU4T8XjjEFT1aoUufs8jYeTvsH1xfVw4sViA2Cmuf7UAscwFwAUBQPIJ5K0QbyBu+sRISfI6Ss8VCLare6dhacAKDhK3v81J/E6B7gCCEiC2/EPmr4vH+Qo3TwzCibUfYOWU/0LKhF/h8JaJuHWzZP8BuFggWFkwd2Cyxuyf/5jUHRBaZXC5pECo+JnfVTkBYu5L2aFQWWDInM9Ubt6xByGjIvBMQ1882SQI7wbNwvtDlqB+/wS82WMuXpEStIoklkwoa4W4gHjLvwCIpi0R5PcsEkYIEEkNkXdyGfKvKRDMDSSHoLc4L2CckLi/v62AIHF+62tiMDHqlhdv6w4ICIc7yfeKlADBY2z5p4SUWuKFuuLmsX7YllgZKyf9COvmvlb4PISY0uPJYyDYwLx3wP81GRoaegcQ9B40HkMKDUbjcZnPQJTEQ7C85BC3hgz7excaDkxp+HCSFTZEmzdtkGNlW4/R1fi4G/4ff8fps0HWQ7LvD1lqjVy+138x6vZbhHqixgMWo/mQJNQMmIK/NwnBSwVALBrxewGiMfJOpSL/6h5XDsFcIi9TkkIpDQ8FSUhoKIYSF775eSDnGZk/K3rO0AtuJPsXSnq9O9Ej6DKPTzhYbQgMl3f5YNXMh7B8zH3Ym9UFly8cKFG44FRqIPi+pgJhhgw1LqHgEDSB4L9TKA4ILjOp5CAUE1d7gqhJoiaTKiaTut4uHcFMTU1Beloq4uYnwLvPGDz7ng8eqeuDql8MRd2ekmCGxUvOkCiJ5CJ4DRBZ8wTxEBPwd/EQL3uZQDQRD5GO/OtHpMLY7QoT9Ap7PxXjiEfIIQhqVOm9m8Ur3CHp1d9G9DLWcsHxdtQW7xCAr4/2wcGM2siY+FOkTvoNTuyOw80bV3CrhEQUCwQNqL+sypDB/zzbr18/y0PQJes+TDz5a2k6ZylKA3sKBOfMUVhysudzf1Mc2LKL3sSd6J1UDF1bt2zGZlH80gy07TveCh0P1+5gVR1VvxyC1zqMdqm9S6/K8j9b9sFf6gSiUqOP0NmHIYNAeImHyEL+jeOufOFIqBhFwkOOALDpaZmLR9gisX2HVAe7xFvsbmITqwibWFkUp12U5CO7pAKx5nJsViaHpRQ90Qe529phTcRfkDH+PmxOaoq8M1ssG5YkXHDyOKmkl6DB+G+ICQSfpKaLpwfhPpyraHRCwdvVngKh0vW6TWXuw++r7ElkUYNVFy7k4uy5s8jauNX6SeHKLbrgkXfb4a+12uJv73bAI3U64pHaHfEo56KHa7fHQzV9LCACC4FoJh5itVQYEi4OB4tXkIph41MuGDaJC7fcuCR5+75C/qFuuHWkp6sctInr8o8EF4j7OInbuJ+5fFu3jobg1ol+yNvlix2JVZE69j+QMeXX1nsZX1/PFSMWGLMEU7FA8AVdGpeNSmPQpfNnCWlk/pdZxmoa24zbWv7RXfNfKXBfrvMECNPYRRncbmwVvZkpwqyi12L5fCHvAnYfOIyIhDT4DZoKL//BqN8hDO91VA1EA9F7HQfg3fYj0LJTIAb1qorFIx/CtuTmyDuehPyTE1xeYBNhoCRMbBLvQDAIyf4OuHWwOy7v9EXu5s9xblNrnBfl5nxufb6w+TNc2EJ9YSnPQRe2yL5b2yBvW1tc3NYeF7ffqQuy/nh2M2vcIX3CT7B6xi+xI62d5A77JVSU8ZtbCgQHpmhEbVDmEfwH5nydj//yuSjxJ5B5I+xuAkJ18WKeeItzOHT0BHbuO4Stu/Zjy+4D2EbtOYDt1O5D2H7gtIScZciY0wJLx/wBm+bXQN6+/sg/2FnKvRouACwgCIN4h01PunKJgz64tscPe5bWQObUPyJtwm+RMfl3Lk35HVaYmvo7rHSnab9H5vQHC5U1QzTzQaya9X9YxeVp/42VE++Xv/ELbF/WEhfPbsXNr69ZMNCGJZ2KBML0EvxfWWxUGoBDwgwdfGqKFQQNT09giuv4Qg9L1PIGoigo3AHhguIi8kQXL93WJUuSB13Ksz5fvgacOrIO6xNaY9nY/8Wm2H8gb6cP8g90EMNXk3AhEGwUCAjDRoFj4xOSQ7wqFYc3ruz2wbZFVQSknyBh2H1IGn4fFts1QtY7SbZxnjzyfpHMC9ZzvlQ+8yHalLE/RqYAk7OwBg5tDMNFyRtcMLhsV5rJLRCc7FAwP2BD0iC8q8h7DSwNGUb0OUZ9xpFZPn9TkVDQWxQFhAlFWQNhQmEHguGDUKj4OU/CCXMN/qTwOX437zqO7l+NNfGfiGEfFCCeQd6ODsjf314MXx3YIDBsEAiYRxAGLm95xRqLuLG/M06va4GDy9/CvmVv4MCyGqLq39D+QlVzSfbfufgl8RAPWmCkT38COcu8sSm1J+ImNcekge9g8exPsS0zFCd2hSP3eAauXTok3vyGlTaUFgZOHgGh0h/80MZj49OYHIPgjSkmnUw06UEIC6HQfMNTIOxQlCUQdij4WbfzGDwu/ybPged07Jic44kL2LcjA6vmf4QlBCLuWQMI8RAEYMPjLi+x4e+ix6QcFCD2tpOksie+PtAd1/cG4tq+QFy/Q10KFCTbuhSoYL8DXSRvaIMNUU8gefj9yIqpiYO7lmPf3h2YMX08+vXphoULonD44E5cvnQe165ewdcS2m9JjcnOq/YqzVQkEDqZUHDcgYZlCCEUbEwagY3JhuSAFO9JEAreKicQDCEmENzPUyBMKMoCCErX83s8Lv+GCwDXgJoJ94GDJ7E9ZylWSg6xZPTvXUBsFyD2tRMgJHlcXwCBBQaXBY5NFSThbIL8PZ9Iadha9Jns/7mIc13+wtqev6cF8nc3EzWX5ZYCmoB0LBhXd/tio3ijpBH3Y2Xsu9i/aw327DuKSZNnoEdwb8TGLcCevfvlGsSTnePvYV/G9es3LPsw7ystGB4BwUkProkmvYUamCdDr8HGpkHZoByzYOjgD5SVFRAmFCUFQpe5XUHQ8zA9HJNmlssEmj9PuH3nIWxam4D0mGYSMhSI9mLQtuIJJHlcJzCsf1QkIKgYRjZyXOKfBXrRBYm5vPEF1zLDzva6ko+8JetkOz8f9MfVXR2xMe4ZyRnuR0bkW9iRk4atW3dg/PgJ6NatGyIiZmPjxhzpfActiNkmzH3Yvmzn0oLhMRA6mWAoHBRPgDkGG50GZo6hJaoTEHpvorRAOIHhDgjKDoJ6A54nPRoBJgh8voLPXjDkcaR10+Y9WJM5H8sjvcRD/K4ACOnF+9oIEJI8rhMY1v1NQCAYprjukW9q3V9dWvMnFwhHhwFnE4GTU4GdzQWSl6ybYld3tXcBIcljWmR15KxLwrr1myT8jkaXLl2sxw/4mCDPl+fN6+E10msrGHxksaRglBgInfTgpmhwxmYakY3NexJagXCMgidJEYCj0ivtXsIOhh0OEww7HE5gqEwQ1CPYQeADNYSAI6Uc2eRopzW+sn4bstJjsSy8EZItIJ6T+F4ARM7LwFo1sgDgqdb80WX4kzOB6yelMW8CX+cBuRnAro8ECG9c3dle/pbLQywPr4Z1WYskgV+LYdLBAgICrIFBemCeK6HgtfD6eK30iPTY9Ny0Cb25p1CUGxB0wXwAlj+DTCgUCHoRGp7AqJewg2ECQZUGCsqEgcdVr6D5gYKgHoEwcKhbB9p4Qy1rdQ4ylsdgyewCICSuX9zeVmJ9RwFCQgaBWPsXMTTBcDC+Xdw/+3di+BYuAG5eLWhRmW6cAY4MkZDRBVd3tMXGmCexZMQDAuPbWJWZiBUrV0vVNgT+/v7WcybM0Qguz5tgsw3ZRmwLQkFvoVDQU6hXp63cTaUGwj7xD9FF8SRoAPZChgwTCJ4YRUO5M6bZs1VOIUDFC3eSVhH8Po/PhmKD2YFgrsAexnc/2Nt4j4TnypFW/oPWzNUbBIj5WBLxMZJGP4jVMx7C2fUfIP9AoBj1Q8kXKkqP/7MY+Q+u+dqHReIxKAsSUwRC1mc/KDlDLeBcsgBh/NbkjXPA8fHAsd44vbYpsqb/QZLKX2JZZHNkrUyVkj7TetHaz8/PAoJVHEMxz5vXwU5I8HmtvG62AT0FOyHb3fQS7qYyA4ITXROBoGHZGxnjCATzCPY6nhAnPbFvK9M7uRP/llkuExKFj42nkCggvCFHj8H8wQobGzcLHKuQubgfUqY+heVjfmLdN7i8qwNwWKDYLVXE5rclP3jeBUP2Q8Dq/xVxTkgkVyiUfF79f6Lfyn4Czz5fIG+NNMgVCR2nXE9ZnRiISzvaIGfOM0gdfT9SpzyJrOQBkj9slA6WaT2+SCB4j4i3Btiu9BA8dwLB6zFDh+klvlMg+EfMxJInxUblSCYrDT5pxZ5II9B7OIkQfRs5HVOrBx0f4TkwPNAjMDzQ6PQIHGBjiOPgGl8yZmPzWc6kpGQsSlyKhXHjED/pXYnpP8OKyf+D3UtexaVtfBeiq8hfSkspMbfzrqeUohukilj3rAAiyWU2PQJBoedgAvqUwCMVxsZKUppKEnmUL9fMF0Xj5uG+OLfxI+TMfx7p4/8Ti4c9gPmT30P8vBlISEzG7NkR6NGjB7y9va2fe+R58vx5PQwZBFvDxl0BBP8g/zBPgm6aJ8gbYPQQHK3kD6bzc1xcnKO47dvIfjyOlPK3oaOjo61/PMt/+sIfXOWQO9884y18PtfBd0fY43iOTIApnjPv1wwaPBBhA4cgNLQfhvX9GBEDHhcofozMyb/CNjHc8ayGklO0w839XazYbz08y4Rzd0sBpIkLkm11ZF5PxIdnP7DGJcAc5ICP5CK+uC7e5tzGFjiY8rrkDX9FxoQfY/Hwn2BKv+cwsM+XCA0bJJ5hIIKDQ9CpUyf07NnTup9EiBkumAcxqWSnYIdjONaQwYqDnZTh/DsHgn9MvQTppKegl4iKiir0FHR5vOH1XYl/j/dT+FBP37590adPH/Tq1UsaN9gSexzr+qCgIKucCwwMtLJ4Njxds4+Pj9Uj23fwleUOCO3WGFGDnkDS8J8hRVz6qum/wfaFz+Noem2c2/ARLgkcV/f448a+zri1P9BS/v4AkWv5Jkcj9wZIyPHGhZxPcWpVA+xLqoKNkX8Sr/AAlo66H4tH/xemhr2IHoEt0bGjH9q397HOg+fXu3dvC2pWcPRwDG/0fux8mj+odzDzh+88qeSkUDBmk0yeFEWC+fQSeysvxhR/3rC8xZ8/oldg7U6vQHerP2RiegYmv8x5CC7vwfAtdwJFmPgMSO8+oejVm7817YuY0W9i6cQ/I23CzySv+BGWj30AWdN+g5y4x7F7cWUcTauJ06vfw5k1TXB2TWNRE5zJbohjGbWwL/lVbJ3/LLLDH5Lv/9R65C113H8gdcL/IHH805g+wgthod0Q0rs/evclzP2tZJKJJD0hQxw9A2FgqGBoVM9QFAy0j8rdVOZAmFAwdvHk6Lo0r9B4zguhODL4XUgrCi0zdbzBLDPpgtnzWB3xJh1jNEFmNs98gr+Ox8f7FicmISF+HhLnDJJytCmWTHoCy8b+Amnjf4wV4u7TxonG/gjpspxKyXrK+izr08b/CBniDRgalo/7TywZ/wcsmV4NidH+WDR/OhIWxSMhIRGJfD9l6VLrHJjbsALS/IfJL9vSzBnYxgzX7IwEQccfTBCooqZyA4IimZrd82S1/CMYvBB3iWB5i+6VA1MEk7AoKI4DUwIKxyNYMREWTTwJTFbWCmRlLkd6yhykLhqGlDntsGxWLSyd8jSWTXgIS8f9GkvG/AKLR/1UwsAvkDzmv+Xzb7Bk8uNYPqsaUmNbYdmCPlieNAsr05OlzOVLzvrLOK6fTiKkPAeejwkC207LS/UI7IBsbwVB7WDCQBU1lSkQnPSP6snwxJjQ0H2RXBLMCyDROgbxXYp/V8XPCidB0YqEnsvuUWgM06vQQBs2uP79k/UPWXLWYevm1diWk471qxOQnRGDrLTZyEyZisxlE0VTkLl8FlalRWDdqoXYvHE5tuZkIWdTthxjnXUcHs91XNe/lGL+RUh5DgSX50cQeN6mNzBDgwmCCYOnU5kDwUlPwg4GT5j08uRJ8t0ihZW9TIHVAS3GZUJDQ1A0CsWsnh5m/34Of7vmBwSmAwcPYe++A2JAeh+GRP4MkoqfRdzf+j7hk/32ucIaQeQxeWx6MEKqnsCEQD0BOxrbsygQqJJM5QKEOZknZp4sL+D7ltmAlK5XcNngCq8JDYGhcQiN6ekID43nkixbo7GuEdlTpynXOmtbwX78DsV9eCweUw1vGp/nwfPhuSkA5jWY7awqzVTuQOjkdMJ3q3Qy15nAEBYFRqExwaERTV265Ho8wFzH/Sh+Rw2uRtdeb+/5em7meZkqi+k7A+JenJwanTIn+zYTnOKkhlZjUzqZx3RSeU3/BuJbTE6GKit9X9O/gfj3ZEzA/wcpInTd6mKULgAAAABJRU5ErkJggg==;" vertex="1" parent="1">
          <mxGeometry x="20" y="30" width="87.31" height="84" as="geometry" />
        </mxCell>
        <mxCell id="1BAPRSXIwwrrs-rfjln7-9" value="" style="endArrow=classic;html=1;rounded=0;exitX=1;exitY=0.5;exitDx=0;exitDy=0;strokeWidth=5;fillColor=#eeeeee;strokeColor=#AAAAAA;entryX=0.005;entryY=0.283;entryDx=0;entryDy=0;entryPerimeter=0;" edge="1" parent="1" source="1BAPRSXIwwrrs-rfjln7-8" target="1BAPRSXIwwrrs-rfjln7-14">
          <mxGeometry width="50" height="50" relative="1" as="geometry">
            <mxPoint x="203.64999999999998" y="-80" as="sourcePoint" />
            <mxPoint x="140" y="90" as="targetPoint" />
          </mxGeometry>
        </mxCell>
        <mxCell id="1BAPRSXIwwrrs-rfjln7-10" value="" style="endArrow=classic;html=1;rounded=0;exitX=1;exitY=0.5;exitDx=0;exitDy=0;entryX=0.006;entryY=0.7;entryDx=0;entryDy=0;strokeColor=#AAAAAA;strokeWidth=5;entryPerimeter=0;" edge="1" parent="1" source="1BAPRSXIwwrrs-rfjln7-7" target="1BAPRSXIwwrrs-rfjln7-14">
          <mxGeometry width="50" height="50" relative="1" as="geometry">
            <mxPoint x="203.64999999999998" y="-160" as="sourcePoint" />
            <mxPoint x="139.03999999999996" y="190.64" as="targetPoint" />
          </mxGeometry>
        </mxCell>
        <mxCell id="1BAPRSXIwwrrs-rfjln7-14" value="Test coordinator" style="rounded=1;whiteSpace=wrap;html=1;absoluteArcSize=1;arcSize=14;strokeWidth=2;fillColor=#cce5ff;strokeColor=#36393d;verticalAlign=top;align=center;fontSize=12;" vertex="1" parent="1">
          <mxGeometry x="143.65" y="20" width="270" height="233" as="geometry" />
        </mxCell>
        <mxCell id="1BAPRSXIwwrrs-rfjln7-15" value="Python unit testing framework" style="rounded=1;whiteSpace=wrap;html=1;fillColor=#eeeeee;strokeColor=#36393d;" vertex="1" parent="1">
          <mxGeometry x="153.65" y="55" width="250" height="87" as="geometry" />
        </mxCell>
        <mxCell id="1BAPRSXIwwrrs-rfjln7-16" value="Auxiliary&lt;br style=&quot;border-color: var(--border-color);&quot;&gt;(Simulated entity)" style="rounded=1;whiteSpace=wrap;html=1;fillColor=#cdeb8b;strokeColor=#36393d;" vertex="1" parent="1">
          <mxGeometry x="153.65" y="148" width="124" height="87" as="geometry" />
        </mxCell>
        <mxCell id="1BAPRSXIwwrrs-rfjln7-17" value="Connector" style="rounded=1;whiteSpace=wrap;html=1;fillColor=#BDD980;strokeColor=#36393d;" vertex="1" parent="1">
          <mxGeometry x="279.65" y="148" width="124" height="87" as="geometry" />
        </mxCell>
        <mxCell id="1BAPRSXIwwrrs-rfjln7-18" value="Device under test" style="rounded=1;whiteSpace=wrap;html=1;fillColor=#ffcc99;strokeColor=#36393d;" vertex="1" parent="1">
          <mxGeometry x="462.65" y="148" width="170" height="87" as="geometry" />
        </mxCell>
        <mxCell id="1BAPRSXIwwrrs-rfjln7-19" value="" style="shape=flexArrow;endArrow=classic;startArrow=classic;html=1;rounded=0;entryX=0;entryY=0.5;entryDx=0;entryDy=0;exitX=1;exitY=0.5;exitDx=0;exitDy=0;fillColor=#1ba1e2;strokeColor=#006EAF;" edge="1" parent="1" source="1BAPRSXIwwrrs-rfjln7-17" target="1BAPRSXIwwrrs-rfjln7-18">
          <mxGeometry width="100" height="100" relative="1" as="geometry">
            <mxPoint x="463.65" y="140" as="sourcePoint" />
            <mxPoint x="563.65" y="40" as="targetPoint" />
          </mxGeometry>
        </mxCell>
      </root>
    </mxGraphModel>
  </diagram>
</mxfile>
